<svg width="33" height="33" viewBox="0 0 33 33" fill="none" xmlns="http://www.w3.org/2000/svg">
<path d="M16.5 0C7.392 0 0 7.392 0 16.5C0 25.608 7.392 33 16.5 33C25.608 33 33 25.608 33 16.5C33 7.392 25.608 0 16.5 0ZM23.1247 18.1005H18.1005V23.1247C18.1005 24.0116 17.3869 24.7253 16.5 24.7253C15.6131 24.7253 14.8995 24.0116 14.8995 23.1247V18.1005H9.87525C8.98837 18.1005 8.27475 17.3869 8.27475 16.5C8.27475 15.6131 8.98837 14.8995 9.87525 14.8995H14.8995V9.87525C14.8995 8.98837 15.6131 8.27475 16.5 8.27475C17.3869 8.27475 18.1005 8.98837 18.1005 9.87525V14.8995H23.1247C24.0116 14.8995 24.7253 15.6131 24.7253 16.5C24.7253 17.3869 24.0075 18.1005 23.1247 18.1005Z" fill="#16923D"/>
</svg>
