<svg width="20" height="23" viewBox="0 0 20 23" fill="none" xmlns="http://www.w3.org/2000/svg">
<path d="M17.1051 9.92339C17.206 10.0179 17.2628 10.1463 17.2628 10.2801C17.2628 10.4132 17.206 10.5417 17.1051 10.6362L14.103 13.4493C13.8935 13.6463 13.5525 13.6463 13.343 13.4493C13.1328 13.2523 13.1328 12.9336 13.343 12.7366L15.4459 10.766H6.20301C6.05884 10.7687 5.91963 10.7168 5.81665 10.6223C5.71367 10.5271 5.65543 10.398 5.65543 10.2623C5.65543 10.1272 5.71367 9.99738 5.81665 9.90287C5.91963 9.80837 6.05883 9.7558 6.20301 9.75846H15.4083L13.343 7.82322C13.1328 7.62624 13.1328 7.30746 13.343 7.11046C13.5525 6.91414 13.8934 6.91414 14.103 7.11046L17.1051 9.92339ZM4.17623 17.037H7.41132C7.70465 17.0317 7.93901 16.8081 7.93901 16.5333C7.93901 16.2584 7.70463 16.0341 7.41132 16.0295H4.17623C3.97665 16.0268 3.81543 15.8757 3.8126 15.6887V4.75572C3.81544 4.56871 3.97666 4.41764 4.17623 4.41498H7.41132C7.70465 4.41032 7.93901 4.18604 7.93901 3.91119C7.93901 3.637 7.70463 3.41273 7.41132 3.40741H4.17623C3.3822 3.40874 2.73801 4.0117 2.7373 4.7564V15.6887C2.73801 16.4328 3.3822 17.0364 4.17623 17.037Z" fill="#424242"/>
</svg>
