<svg width="225" height="226" viewBox="0 0 225 226" fill="none" xmlns="http://www.w3.org/2000/svg">
<path d="M110.101 215.642C166.778 215.642 212.888 169.662 212.888 113.143C212.888 56.6248 166.778 10.6445 110.101 10.6445C53.4239 10.6445 7.31445 56.6248 7.31445 113.143C7.31445 169.662 53.4239 215.642 110.101 215.642ZM110.101 52.5093C127.873 52.5093 142.567 66.8999 142.567 84.884C142.567 102.868 127.874 116.997 110.101 116.997C92.328 116.997 77.6354 102.606 77.6354 84.622C77.6354 66.6378 92.328 52.5093 110.101 52.5093ZM81.2499 120.077C88.9786 126.761 99.0218 130.865 110.101 130.865C121.181 130.865 131.224 126.75 138.952 120.077C154.923 129.841 165.49 147.314 165.49 167.093C109.076 182.246 54.7121 167.093 54.7121 167.093C54.7121 147.313 65.2787 129.842 81.2499 120.077Z" fill="#14532D"/>
</svg>
